# xmcd CD database file
#
# Track frame offsets:
#	150
#	14347
#	27616
#	42305
#	58255
#	88938
#	104262
#	122926
#	142046
#	159824
#	181058
#	194234
#	215636
#	228753
#	242171
#	253751
#	265703
#
# Disc length: 4056 seconds
#
# Revision: 0
# Processed by: cddbd v1.5.2PL0 Copyright (c) Steve Scherf et al.
# Submitted via: CDex 1.70beta2
#
DISCID=fa0fd611
DTITLE=Taj Mahal - The Natch'l Blues
DYEAR=1900
DGENRE=Blues
TTITLE0=Good Morning Miss Brown
TTITLE1=Corrinna
TTITLE2=I Ain't Gonna Let Mobody Steal My Jelly Roll
TTITLE3=Goin' Up to the Country, Gonna Paint My Mailbox Blue
TTITLE4=Done Changed My Way of Living
TTITLE5=She Caught the Katy and Left Me a Mule To Ride
TTITLE6=The Cuckoo
TTITLE7=You Don't Miss Your Waiter ('Till Your Well Runs Dry)
TTITLE8=A Lot of Love
TTITLE9=Leavin' Trunk
TTITLE10=Statesboro Blues
TTITLE11=Checkin' Up On My Baby
TTITLE12=Everybody's Got to Change Sometime
TTITLE13=E-Z Rider
TTITLE14=Dust My Broom
TTITLE15=Diving Duck Blues
TTITLE16=The Celebrated Walkin' Blues
EXTD=
EXTT0=
EXTT1=
EXTT2=
EXTT3=
EXTT4=
EXTT5=
EXTT6=
EXTT7=
EXTT8=
EXTT9=
EXTT10=
EXTT11=
EXTT12=
EXTT13=
EXTT14=
EXTT15=
EXTT16=
PLAYORDER=
